<svg width="20" height="20" viewBox="0 0 20 20" fill="none" xmlns="http://www.w3.org/2000/svg">
<path d="M2.28414 6.31355H2.55782C3.61149 6.31355 4.47359 7.17564 4.47359 8.22931V17.8081C4.47359 18.8618 3.61149 19.7239 2.55782 19.7239H2.28414C1.23047 19.7239 0.368378 18.8618 0.368378 17.8081V8.22931C0.368378 7.17564 1.23047 6.31355 2.28414 6.31355V6.31355ZM9.9472 0.566257C11.0009 0.566257 11.863 1.42835 11.863 2.48202V17.8081C11.863 18.8618 11.0009 19.7239 9.9472 19.7239C8.89353 19.7239 8.03143 18.8618 8.03143 17.8081V2.48202C8.03143 1.42835 8.89353 0.566257 9.9472 0.566257ZM17.6103 11.5135C18.6639 11.5135 19.526 12.3756 19.526 13.4292V17.8081C19.526 18.8618 18.6639 19.7239 17.6103 19.7239C16.5566 19.7239 15.6945 18.8618 15.6945 17.8081V13.4292C15.6945 12.3756 16.5566 11.5135 17.6103 11.5135V11.5135Z" fill="#1C4532"/>
</svg>
