<svg width="20" height="21" viewBox="0 0 20 21" fill="none" xmlns="http://www.w3.org/2000/svg">
<g clip-path="url(#clip0_204_173)">
<circle cx="12.2127" cy="8.83551" r="4" fill="#D9D9D9"/>
<mask id="path-2-inside-1_204_173" fill="white">
<path d="M3.82437 1.54018C2.17067 3.60052 1.30248 6.18123 1.37461 8.82217C1.44675 11.4631 2.4545 13.9926 4.2182 15.9596C5.9819 17.9266 8.38688 19.2032 11.0043 19.5619C13.6218 19.9206 16.2816 19.338 18.5094 17.918L16.9381 15.4528C15.2945 16.5004 13.3323 16.9302 11.4012 16.6656C9.47023 16.4009 7.69597 15.4591 6.39481 14.0079C5.09365 12.5568 4.35019 10.6907 4.29697 8.74235C4.24376 6.79402 4.88426 4.89011 6.10426 3.37011L3.82437 1.54018Z"/>
</mask>
<path d="M3.82437 1.54018C2.17067 3.60052 1.30248 6.18123 1.37461 8.82217C1.44675 11.4631 2.4545 13.9926 4.2182 15.9596C5.9819 17.9266 8.38688 19.2032 11.0043 19.5619C13.6218 19.9206 16.2816 19.338 18.5094 17.918L16.9381 15.4528C15.2945 16.5004 13.3323 16.9302 11.4012 16.6656C9.47023 16.4009 7.69597 15.4591 6.39481 14.0079C5.09365 12.5568 4.35019 10.6907 4.29697 8.74235C4.24376 6.79402 4.88426 4.89011 6.10426 3.37011L3.82437 1.54018Z" stroke="#D9D9D9" stroke-width="4" mask="url(#path-2-inside-1_204_173)"/>
</g>
<defs>
<clipPath id="clip0_204_173">
<rect width="20" height="21" fill="white"/>
</clipPath>
</defs>
</svg>
