<svg width="118" height="28" viewBox="0 0 118 28" fill="none" xmlns="http://www.w3.org/2000/svg">
<path d="M56.2679 0.600647H51.474C51.3389 0.600647 51.2293 0.707495 51.2293 0.839299V27.1579C51.2293 27.2897 51.3389 27.3966 51.474 27.3966H56.2679C56.4031 27.3966 56.5127 27.2897 56.5127 27.1579V0.839299C56.5127 0.707495 56.4031 0.600647 56.2679 0.600647Z" fill="#064E3B"/>
<path d="M2.99759 10.1913L3.00674 12.4708C3.00827 12.6611 3.09365 12.8039 3.2629 12.899L12.6883 18.1806C12.7529 18.2172 12.8263 18.2365 12.901 18.2365C12.9757 18.2365 13.0491 18.2172 13.1137 18.1806L25.0024 11.485C25.0282 11.4704 25.0575 11.4626 25.0873 11.4624C25.1171 11.4622 25.1464 11.4697 25.1722 11.4839C25.1979 11.4982 25.2193 11.5188 25.2341 11.5437C25.2488 11.5685 25.2565 11.5967 25.2563 11.6255C25.2624 14.0536 25.2586 16.5108 25.2449 18.9969C25.2433 19.4608 24.9597 19.8519 24.394 20.1701C20.7849 22.2117 17.1727 24.2473 13.5574 26.2769C13.036 26.5691 12.4779 26.375 11.9358 26.0762C6.55642 23.1023 2.96557 21.1024 1.16329 20.0764C0.355916 19.617 0.520591 18.0356 0.582345 17.2215C0.584364 17.1912 0.594286 17.1619 0.61117 17.1364C0.628055 17.1108 0.651343 17.0899 0.678829 17.0756C0.706314 17.0613 0.737088 17.0541 0.768233 17.0547C0.799379 17.0552 0.829866 17.0635 0.856805 17.0788L12.6403 23.703C12.7203 23.7478 12.811 23.7714 12.9033 23.7714C12.9956 23.7714 13.0863 23.7478 13.1663 23.703L22.4934 18.446C22.5622 18.4075 22.6194 18.3517 22.6591 18.2844C22.6989 18.217 22.7198 18.1404 22.7198 18.0624L22.729 15.8543C22.729 15.6773 22.6497 15.6335 22.4911 15.7227L13.2166 20.9374C12.9956 21.0623 12.7745 21.0623 12.5534 20.9374L0.813349 14.3465C0.732027 14.3005 0.664516 14.2345 0.617559 14.155C0.570602 14.0756 0.545841 13.9855 0.54575 13.8938C0.551849 12.6462 0.554899 11.3771 0.554899 10.0865C0.552612 9.04713 0.776754 8.42039 1.68018 7.92302C5.10483 6.0361 8.51957 4.13061 11.9244 2.20652C13.0154 1.5887 14.0858 2.29128 15.0212 2.86226C15.1706 2.95445 15.1905 3.06745 15.0807 3.20128C15.0227 3.26968 14.9213 3.34476 14.7765 3.42655C11.8139 5.09488 8.8535 6.76544 5.89543 8.43824C5.80699 8.48731 5.73609 8.54232 5.68272 8.60329C5.67513 8.61178 5.66957 8.62183 5.66645 8.63269C5.66334 8.64354 5.66274 8.65494 5.66471 8.66605C5.66669 8.67716 5.67117 8.6877 5.67785 8.69691C5.68453 8.70611 5.69322 8.71375 5.70331 8.71927L7.83266 9.90806C7.87513 9.93175 7.92307 9.94422 7.97165 9.94422C8.02023 9.94422 8.06774 9.93175 8.10941 9.90806L17.4914 4.62427C17.5936 4.5665 17.7097 4.53591 17.8281 4.53552C17.9465 4.53513 18.063 4.56495 18.1661 4.62204C20.1041 5.6956 22.0672 6.80485 24.0555 7.94978C24.2858 8.0836 24.5328 8.27393 24.7966 8.52076C24.8256 8.54749 24.8477 8.58048 24.8611 8.61712C24.8746 8.65376 24.8791 8.69303 24.8742 8.7318C24.8693 8.77057 24.8552 8.80777 24.833 8.84045C24.8108 8.87312 24.7811 8.90036 24.7463 8.92L13.0314 15.5063C12.9844 15.5334 12.9306 15.5475 12.8759 15.5471C12.8211 15.5467 12.7673 15.5319 12.7203 15.5041L10.6665 14.3042C10.5048 14.209 10.5056 14.1146 10.6687 14.0209C13.8083 12.2515 16.9302 10.4828 20.0347 8.71481C20.0972 8.67912 20.1323 8.65235 20.1399 8.63451C20.1535 8.60404 20.1521 8.56826 20.136 8.53434C20.1198 8.50042 20.0902 8.47087 20.053 8.45162L18.006 7.36319C17.9493 7.33319 17.8859 7.31784 17.8218 7.31862C17.7577 7.31941 17.6951 7.33629 17.64 7.36765L8.1643 12.6961C8.10091 12.732 8.02883 12.7509 7.95533 12.7509C7.88184 12.7509 7.80954 12.732 7.74575 12.6961L3.15998 10.0999C3.14356 10.0904 3.12484 10.0853 3.10574 10.0852C3.08665 10.0851 3.06786 10.0899 3.05132 10.0992C3.03479 10.1085 3.02109 10.122 3.01165 10.1382C3.0022 10.1544 2.99735 10.1727 2.99759 10.1913Z" fill="#064E3B"/>
<path d="M27.5778 17.8282C27.3468 13.0217 30.3795 8.62337 35.146 7.3632C38.1262 6.57587 41.5821 7.07771 44.1849 8.71035C48.3818 11.3444 49.5574 16.3718 48.1691 20.9507C46.8265 25.3915 41.9709 27.9051 37.4263 27.6531C31.7152 27.3386 27.8431 23.3573 27.5778 17.8282ZM37.8563 23.332C39.2763 23.3901 40.6652 22.8179 41.7173 21.7415C42.7694 20.665 43.3986 19.1724 43.4666 17.592C43.5345 16.0116 43.0355 14.4729 42.0795 13.3144C41.1234 12.1559 39.7886 11.4724 38.3686 11.4144C36.9486 11.3563 35.5597 11.9285 34.5076 13.0049C33.4555 14.0814 32.8263 15.574 32.7583 17.1544C32.6904 18.7347 33.1894 20.2734 34.1454 21.432C35.1015 22.5905 36.4363 23.274 37.8563 23.332Z" fill="#064E3B"/>
<path d="M74.7643 9.94821C74.8207 9.87387 74.8466 9.78614 74.842 9.68503C74.8146 8.98022 74.8116 8.27244 74.8329 7.56169C74.839 7.38475 74.932 7.29628 75.1119 7.29628L79.8326 7.30074C79.9145 7.30074 79.9931 7.33246 80.051 7.38893C80.1089 7.44539 80.1414 7.52198 80.1414 7.60184V27.0843C80.1414 27.1583 80.111 27.2292 80.057 27.2815C80.003 27.3337 79.9297 27.3631 79.8532 27.3631L75.0799 27.3676C75.0449 27.3676 75.0102 27.3608 74.9779 27.3477C74.9455 27.3345 74.9162 27.3153 74.8915 27.291C74.8668 27.2668 74.8473 27.238 74.8341 27.2063C74.8209 27.1747 74.8143 27.1408 74.8146 27.1066L74.8329 25.0056C74.836 24.6651 74.7216 24.6227 74.4898 24.8785C72.3559 27.2427 69.1722 28.0635 66.041 27.4323C56.6888 25.5453 56.0667 10.0976 65.3686 7.44125C68.7605 6.47326 72.2576 7.40333 74.6751 9.9549C74.6808 9.96088 74.6878 9.9655 74.6956 9.96845C74.7035 9.97139 74.712 9.97259 74.7205 9.97195C74.729 9.97131 74.7373 9.96886 74.7449 9.96476C74.7524 9.96065 74.7591 9.95501 74.7643 9.94821ZM69.5936 23.2289C70.3092 23.2143 71.0145 23.0477 71.6692 22.7385C72.324 22.4294 72.9154 21.9838 73.4097 21.4273C73.9039 20.8707 74.2914 20.214 74.5499 19.4947C74.8084 18.7754 74.9329 18.0076 74.9163 17.2351C74.8997 16.4626 74.7424 15.7006 74.4532 14.9924C74.164 14.2843 73.7487 13.6441 73.231 13.1082C72.7132 12.5723 72.1032 12.1512 71.4358 11.8691C70.7683 11.587 70.0564 11.4493 69.3408 11.4639C68.6253 11.4786 67.9199 11.6452 67.2652 11.9543C66.6104 12.2634 66.019 12.709 65.5247 13.2656C65.0305 13.8222 64.643 14.4788 64.3845 15.1981C64.126 15.9174 64.0015 16.6852 64.0181 17.4577C64.0347 18.2302 64.1921 18.9923 64.4812 19.7004C64.7704 20.4085 65.1857 21.0488 65.7034 21.5847C66.2212 22.1206 66.8312 22.5416 67.4987 22.8237C68.1661 23.1058 68.878 23.2435 69.5936 23.2289Z" fill="#064E3B"/>
<path d="M111.725 9.86572C111.952 10.1304 112.064 10.091 112.061 9.74751L112.047 7.61525C112.046 7.4056 112.153 7.30003 112.37 7.29854L116.956 7.29185C117.058 7.29185 117.155 7.33133 117.227 7.4016C117.299 7.47187 117.34 7.56718 117.34 7.66655L117.347 27.0933C117.347 27.1648 117.318 27.2335 117.266 27.2841C117.214 27.3347 117.143 27.3631 117.07 27.3631L112.274 27.3676C112.243 27.3676 112.212 27.3616 112.183 27.3499C112.154 27.3382 112.128 27.3211 112.106 27.2995C112.084 27.278 112.067 27.2524 112.055 27.2242C112.044 27.1961 112.038 27.166 112.038 27.1356L112.052 24.9053C112.052 24.8749 112.043 24.8452 112.025 24.8201C112.008 24.795 111.983 24.7758 111.954 24.7649C111.925 24.754 111.893 24.752 111.863 24.7591C111.832 24.7663 111.805 24.7822 111.784 24.8049C110.345 26.3766 108.599 27.3007 106.547 27.5773C101.154 28.3044 96.8857 24.4949 96.1081 19.4319C95.4425 15.0938 96.689 10.3832 100.923 8.1617C104.532 6.2681 109.115 6.80785 111.725 9.86572ZM106.806 23.2133C108.25 23.1838 109.622 22.5365 110.62 21.4137C111.618 20.2909 112.16 18.7846 112.126 17.2263C112.11 16.4547 111.952 15.6935 111.663 14.9862C111.374 14.2789 110.959 13.6393 110.442 13.1041C109.924 12.5688 109.314 12.1482 108.647 11.8664C107.98 11.5846 107.268 11.4471 106.553 11.4617C105.109 11.4912 103.736 12.1386 102.739 13.2614C101.741 14.3842 101.199 15.8904 101.233 17.4488C101.249 18.2204 101.406 18.9816 101.695 19.6889C101.985 20.3962 102.4 21.0357 102.917 21.571C103.435 22.1063 104.044 22.5268 104.712 22.8086C105.379 23.0904 106.09 23.2279 106.806 23.2133Z" fill="#064E3B"/>
<path d="M87.7691 10.1378C87.8393 10.1125 87.9079 10.056 87.975 9.96831C89.3534 8.18697 91.2517 7.23459 93.67 7.11117C93.7016 7.10966 93.7332 7.11443 93.7628 7.12518C93.7924 7.13594 93.8195 7.15246 93.8424 7.17373C93.8653 7.19501 93.8835 7.2206 93.8959 7.24896C93.9084 7.27731 93.9148 7.30784 93.9147 7.33867L93.8987 12.2522C93.8987 12.2749 93.8896 12.2967 93.8734 12.313C93.8572 12.3292 93.8351 12.3386 93.8118 12.3392C91.01 12.4106 87.9361 12.7095 87.7348 16.2067C87.5267 19.8266 87.625 23.4867 87.625 27.0888C87.625 27.1621 87.5954 27.2325 87.5426 27.2844C87.4899 27.3362 87.4183 27.3654 87.3437 27.3654L82.6596 27.3676C82.5832 27.3676 82.5099 27.3378 82.4558 27.2846C82.4018 27.2315 82.3714 27.1595 82.3714 27.0843V7.71115C82.3711 7.65707 82.3818 7.60347 82.403 7.55342C82.4241 7.50337 82.4552 7.45787 82.4945 7.41952C82.5338 7.38118 82.5806 7.35075 82.6321 7.32998C82.6836 7.30922 82.7388 7.29853 82.7945 7.29853L87.3551 7.29184C87.3934 7.29184 87.4312 7.2992 87.4665 7.31349C87.5018 7.32778 87.5337 7.34871 87.5606 7.37508C87.5874 7.40144 87.6085 7.4327 87.6227 7.46704C87.6369 7.50138 87.6439 7.53811 87.6433 7.5751L87.6227 10.0374C87.6227 10.14 87.6715 10.1735 87.7691 10.1378Z" fill="#064E3B"/>
</svg>
